#!OML:ASF F:\VICON\USERDATA\INSTALL\rory3\rory3.ASF
:FULLY-SPECIFIED
:DEGREES
2636
root -10.0056 17.8149 15.3073 716.976 -268.505 715.164
lowerback 10.733 3.81704 1.32721
upperback 0.452278 5.24305 -0.33741
thorax -5.37966 2.55561 -1.88629
lowerneck -17.8003 -2.43954 -8.18035
upperneck 31.6734 -1.02716 3.20495
head 13.8276 -0.687886 2.60146
rclavicle 1.00138e-014 8.74653e-015
rhumerus -36.7801 -8.30823 -83.2952
rradius 30.8046
rwrist 6.49605
rhand -15.1452 9.6572
rfingers 7.12502
rthumb 11.0247 -20.0333
lclavicle 1.00138e-014 8.74653e-015
lhumerus -37.2539 6.90567 81.146
lradius 28.9069
lwrist -7.92529
lhand -19.7449 25.029
lfingers 7.12502
lthumb 6.5861 54.9065
rfemur 8.52028 -2.62574 23.0978
rtibia 18.8439
rfoot -16.3292 0.844988
rtoes -6.46196
lfemur -21.2535 -3.8665 -23.483
ltibia 22.5881
lfoot -3.91252 -8.12342
ltoes 10.0166
2637
root -9.89309 17.8228 15.2852 712.685 -268.403 710.887
lowerback 10.6139 3.76377 1.33422
upperback 0.39999 5.16723 -0.406612
thorax -5.36367 2.51702 -1.94421
lowerneck -17.6504 -2.43135 -8.16988
upperneck 31.5633 -1.07473 3.3117
head 13.7495 -0.691653 2.63113
rclavicle -1.63749e-014 -2.78299e-015
rhumerus -37.0396 -8.63883 -83.0078
rradius 30.7774
rwrist 7.14497
rhand -14.8163 10.0366
rfingers 7.12502
rthumb 11.3419 -19.6367
lclavicle -1.63749e-014 -2.78299e-015
lhumerus -37.3665 7.1495 80.9065
lradius 28.8631
lwrist -8.02567
lhand -19.4754 24.5996
lfingers 7.12502
lthumb 6.8462 54.4689
rfemur 8.29818 -2.89148 22.7923
rtibia 19.9724
rfoot -15.9428 1.10819
rtoes -6.51775
lfemur -20.8117 -4.01191 -23.7316
ltibia 22.5412
lfoot -3.79158 -7.83431
ltoes 9.92961
2638
root -9.78193 17.829 15.2632 714.558 -268.34 712.794
lowerback 10.56 3.77676 1.48299
upperback 0.33069 5.19967 -0.435096
thorax -5.3893 2.52759 -2.05991
lowerneck -17.5832 -2.48687 -8.12025
upperneck 31.5453 -1.23389 3.46986
head 13.7376 -0.73227 2.65912
rclavicle 5.01931e-014 2.38542e-015
rhumerus -37.3144 -8.81126 -82.957
rradius 30.8298
rwrist 6.50665
rhand -15.6115 9.15392
rfingers 7.12502
rthumb 10.5749 -20.56
lclavicle 5.01931e-014 2.38542e-015
lhumerus -37.4431 7.12152 80.7391
lradius 28.7759
lwrist -7.99982
lhand -19.5298 24.3788
lfingers 7.12502
lthumb 6.79375 54.2498
rfemur 8.01132 -3.07323 22.697
rtibia 21.225
rfoot -15.4152 1.27976
rtoes -7.80435
lfemur -20.4154 -3.77317 -23.8742
ltibia 22.5857
lfoot -3.88786 -7.90539
ltoes 9.04665
2639
root -9.66959 17.8396 15.2387 720.29 -268.347 718.585
lowerback 10.4891 3.77586 1.7554
upperback 0.274512 5.23334 -0.369208
thorax -5.38934 2.53725 -2.14416
lowerneck -17.5674 -2.50042 -8.0981
upperneck 31.6152 -1.25688 3.47087
head 13.766 -0.738397 2.65422
rclavicle -7.94145e-014 0
rhumerus -37.5723 -8.86184 -82.7886
rradius 30.8644
rwrist 6.01171
rhand -15.7536 8.91819
rfingers 7.12502
rthumb 10.4378 -20.8027
lclavicle -7.94145e-014 0
lhumerus -37.5653 7.10119 80.6695
lradius 28.7336
lwrist -7.93582
lhand -19.4202 24.3344
lfingers 7.12502
lthumb 6.89954 54.2019
rfemur 7.65985 -3.20543 22.7032
rtibia 22.624
rfoot -14.802 1.60772
rtoes -8.63813
lfemur -19.9727 -3.48811 -23.8777
ltibia 22.6392
lfoot -4.08473 -8.10603
ltoes 9.04588
2640
root -9.55573 17.8514 15.2131 726.105 -268.397 724.509
lowerback 10.3911 3.70392 1.96583
upperback 0.296763 5.16696 -0.258972
thorax -5.30587 2.50263 -2.12802
lowerneck -17.6408 -2.42431 -8.00347
upperneck 31.6499 -1.12126 3.32439
head 13.7855 -0.68903 2.60257
rclavicle -3.02401e-014 -1.17283e-014
rhumerus -37.7156 -8.74459 -82.5407
rradius 30.909
rwrist 6.10087
rhand -15.0437 9.66816
rfingers 7.12502
rthumb 11.1226 -20.0171
lclavicle -3.02401e-014 -1.17283e-014
lhumerus -37.6649 7.45951 80.5587
lradius 28.8132
lwrist -8.06668
lhand -18.9646 25.5856
lfingers 7.12502
lthumb 7.33928 55.4383
rfemur 7.26886 -3.46676 22.6076
rtibia 24.1838
rfoot -14.0266 2.26431
rtoes -8.61534
lfemur -19.4326 -3.42918 -23.8257
ltibia 22.6739
lfoot -4.28105 -8.31739
ltoes 9.50826
2641
root -9.44145 17.8595 15.1903 728.829 -268.46 727.394
lowerback 10.3272 3.6458 2.03081
upperback 0.339826 5.09974 -0.191708
thorax -5.22851 2.47099 -2.07785
lowerneck -17.6533 -2.38405 -7.9882
upperneck 31.6084 -1.08312 3.35413
head 13.7667 -0.667588 2.61683
rclavicle 2.76808e-014 -1.39149e-015
rhumerus -37.8289 -8.84419 -82.3402
rradius 30.9738
rwrist 6.19181
rhand -14.8417 9.90427
rfingers 7.12502
rthumb 11.3174 -19.7704
lclavicle 2.76808e-014 -1.39149e-015
lhumerus -37.7427 7.54835 80.6383
lradius 29.0246
lwrist -7.54484
lhand -19.3518 27.8988
lfingers 7.12502
lthumb 6.96558 57.7642
rfemur 6.84266 -3.72757 22.3825
rtibia 25.912
rfoot -13.0979 3.04735
rtoes -8.57861
lfemur -18.8305 -3.3994 -23.8784
ltibia 22.6607
lfoot -4.4106 -8.5864
ltoes 9.5878
2642
root -9.32847 17.8692 15.1661 732.102 -268.496 730.877
lowerback 10.3744 3.60986 2.13328
upperback 0.338968 5.07265 -0.061405
thorax -5.26022 2.45599 -1.99927
lowerneck -17.6471 -2.40354 -8.13094
upperneck 31.6895 -1.03835 3.29777
head 13.8004 -0.672789 2.62885
rclavicle -7.66315e-014 6.95746e-015
rhumerus -38.0378 -8.96024 -81.9715
rradius 31.0116
rwrist 6.24082
rhand -15.2751 9.48925
rfingers 7.12502
rthumb 10.8994 -20.2079
lclavicle -7.66315e-014 6.95746e-015
lhumerus -37.9462 7.09912 81.1679
lradius 29.2653
lwrist -5.68681
lhand -21.3986 29.088
lfingers 7.12502
lthumb 4.98946 59.0093
rfemur 6.27437 -4.01258 22.1714
rtibia 27.9562
rfoot -12.0623 3.79756
rtoes -9.3945
lfemur -18.0996 -3.38941 -23.9109
ltibia 22.4523
lfoot -4.48203 -8.69022
ltoes 9.5099
2643
root -9.21426 17.8851 15.1382 730.252 -268.571 729.197
lowerback 10.3893 3.56738 2.14951
upperback 0.334524 5.02004 -0.0352674
thorax -5.27662 2.42957 -1.97515
lowerneck -17.7244 -2.38771 -8.02737
upperneck 31.7929 -0.978928 3.12446
head 13.8571 -0.658923 2.55417
rclavicle -3.54582e-014 -4.37326e-015
rhumerus -38.2553 -8.8601 -81.7808
rradius 31.1253
rwrist 6.0978
rhand -15.6813 9.02797
rfingers 7.12502
rthumb 10.5076 -20.6894
lclavicle -3.54582e-014 -4.37326e-015
lhumerus -38.0574 6.69868 81.4661
lradius 29.2566
lwrist -4.27884
lhand -23.2175 28.9026
lfingers 7.12502
lthumb 3.23306 58.8578
rfemur 5.54564 -4.27701 21.7826
rtibia 30.1647
rfoot -10.8512 4.55324
rtoes -10.8564
lfemur -17.3335 -3.56969 -24.0415
ltibia 22.1558
lfoot -4.42182 -8.47933
ltoes 10.7979
2644
root -9.1033 17.881 15.1123 718.793 -268.689 717.83
lowerback 10.2577 3.55075 1.93896
upperback 0.407827 4.96332 -0.151791
thorax -5.13571 2.40935 -1.95834
lowerneck -17.8724 -2.33787 -7.78692
upperneck 31.7522 -0.966574 3.06611
head 13.8664 -0.635125 2.4897
rclavicle -6.26917e-014 7.35503e-015
rhumerus -38.2727 -8.78668 -81.8137
rradius 31.2344
rwrist 5.75293
rhand -16.0359 8.73723
rfingers 7.12502
rthumb 10.1655 -20.9972
lclavicle -6.26917e-014 7.35503e-015
lhumerus -37.912 6.2207 81.5603
lradius 29.1789
lwrist -3.30774
lhand -24.2697 28.4521
lfingers 7.12502
lthumb 2.21687 58.4204
rfemur 4.52496 -4.53067 21.1117
rtibia 32.6831
rfoot -9.47785 5.43688
rtoes -10.1262
lfemur -16.5932 -3.0403 -24.624
ltibia 21.6364
lfoot -4.72473 -8.76748
ltoes 5.71269
